<svg width="175" height="76" viewBox="0 0 175 76" fill="none" xmlns="http://www.w3.org/2000/svg">
<path fill-rule="evenodd" clip-rule="evenodd" d="M62.8205 0.00207569C70.5633 -0.08618 74.5027 2.65955 79.5455 4.49658C91.9354 9.00946 104.883 11.7246 115.035 18.7973C118.892 21.4842 122.436 24.8281 127.273 26.9691C133.935 29.9179 149.488 34.814 153.788 39.6354C153.788 39.7715 153.788 39.9079 153.788 40.044C153.652 40.044 153.516 40.044 153.38 40.044C132.442 31.0558 111.497 22.0652 90.5594 13.077C82.7497 9.7245 74.5455 3.12698 66.0839 6.53953C66.4918 5.58629 66.8998 4.63264 67.3077 3.67939C67.3077 3.54333 67.3077 3.40686 67.3077 3.2708C51.2779 3.22341 33.3348 5.41509 21.62 9.39967C21.8921 8.99108 22.1638 8.58249 22.4359 8.1739C26.7367 6.31154 29.8116 3.50901 35.4895 2.45362C44.5989 1.63644 53.7111 0.819258 62.8205 0.00207569ZM58.3333 10.2169C58.1975 11.4426 58.0612 12.6684 57.9254 13.8942C53.1694 13.6449 50.2992 14.3698 48.951 17.5715C47.8427 21.3718 48.9331 28.885 50.5827 31.4636C50.7186 31.4636 50.8548 31.4636 50.9907 31.4636C51.6707 31.1911 52.3503 30.9189 53.0303 30.6464C53.5386 24.7443 53.8082 20.6997 51.8065 16.7543C53.7099 16.4818 55.6141 16.2097 57.5175 15.9371C55.515 22.4063 53.9461 51.1082 51.3986 54.7533C45.1451 63.701 13.8095 59.8733 6.11888 55.1619C3.35927 45.3777 12.292 15.6695 18.3566 13.077C31.6807 12.1237 45.0093 11.1701 58.3333 10.2169ZM81.1772 28.6034C67.5863 28.6308 60.3028 41.1733 57.5175 51.8931C57.3816 51.8931 57.2454 51.8931 57.1096 51.8931C56.9892 42.2242 59.8145 12.6835 65.676 11.034C70.2762 9.73962 77.8562 14.476 81.1772 15.9371C81.1772 20.1587 81.1772 24.3819 81.1772 28.6034ZM9.79021 13.8942C11.5578 14.0302 13.3257 14.1667 15.0932 14.3028C14.8212 14.7114 14.5495 15.1199 14.2774 15.5285C11.4643 15.9028 8.81975 15.8403 7.34266 17.5715C7.34266 17.7076 7.34266 17.844 7.34266 17.9801C8.15851 18.1161 8.97436 18.2526 9.79021 18.3887C9.38228 22.6102 8.97436 26.8334 8.56643 31.055C8.15851 31.1911 7.75058 31.3275 7.34266 31.4636C6.66265 31.055 5.98304 30.6464 5.30303 30.2378C5.1264 26.4825 3.6701 19.0849 5.71096 16.3457C6.78992 14.7755 8.0704 14.8029 9.79021 13.8942ZM105.653 34.7323C98.3108 32.9619 90.9666 31.1911 83.6247 29.4206C83.6247 25.1991 83.6247 20.9759 83.6247 16.7543C90.9666 19.7505 98.3108 22.7471 105.653 25.7433C105.653 28.7395 105.653 31.7361 105.653 34.7323ZM17.1329 17.9801C15.7733 21.657 14.4132 25.3351 13.0536 29.012C15.7651 34.4267 24.4074 55.1055 28.5548 57.6134C31.4098 57.4773 34.2661 57.3409 37.1212 57.2048C30.459 44.1311 23.7951 31.0538 17.1329 17.9801ZM107.692 26.1519C113.267 28.1944 118.843 30.2382 124.417 32.2808C124.417 34.7319 124.417 37.1843 124.417 39.6354C118.843 38.1375 113.267 36.6388 107.692 35.1409C107.692 32.1447 107.692 29.1481 107.692 26.1519ZM11.4219 32.2808C9.72902 41.1966 17.046 51.1977 21.2121 57.6134C22.4359 57.7495 23.6597 57.8859 24.8834 58.022C24.8834 57.8859 24.8834 57.7495 24.8834 57.6134C20.3967 49.1699 15.9087 40.7243 11.4219 32.2808ZM126.457 33.0979C131.513 34.3609 137.404 35.9748 137.471 42.4955C133.8 41.6784 130.128 40.8612 126.457 40.044C126.457 37.7289 126.457 35.413 126.457 33.0979ZM175 76C116.672 75.8639 58.3276 75.7275 0 75.5914C0.272086 75.5914 0.543765 75.5914 0.815851 75.5914C3.80717 74.9103 6.79889 74.2296 9.79021 73.5485C8.62599 71.2505 6.94207 71.0458 5.71096 69.054C5.16719 65.5131 4.62302 61.9714 4.07925 58.4306C6.79848 60.065 9.51853 61.6993 12.2378 63.3337C13.8111 66.1763 12.2643 67.4784 15.0932 69.054C16.4684 69.7763 33.8182 72.3803 36.7133 70.6883C38.4078 69.6979 38.3087 65.1061 39.9767 63.7423C44.1914 62.3804 48.4077 61.0182 52.6224 59.6564C52.4368 64.9537 52.7317 69.3326 54.662 72.3227C62.6635 74.4241 75.0081 73.1399 84.4406 73.1399C106.33 73.1399 128.227 73.1399 150.117 73.1399C158.41 73.2759 166.706 73.4124 175 73.5485C175 74.3656 175 75.1828 175 76ZM14.2774 62.5165C19.999 64.3069 27.4856 64.1889 35.0816 64.1509C34.9457 64.6955 34.8095 65.2406 34.6737 65.7852C29.9075 66.8226 17.13 66.7479 14.6853 63.7423C14.5495 63.3337 14.4132 62.9251 14.2774 62.5165ZM17.1329 67.4196C21.8917 67.8282 26.6518 68.2368 31.4103 68.6454C31.4103 68.7814 31.4103 68.9179 31.4103 69.054C26.9235 68.9179 22.4355 68.7814 17.9487 68.6454C17.6766 68.2368 17.405 67.8282 17.1329 67.4196Z" fill="white"/>
<path d="M69.728 46.96V49.232H73.392V51.344H69.728V53.808H73.872V56H66.992V44.768H73.872V46.96H69.728ZM88.3682 44.768V46.96H85.3922V56H82.6562V46.96H79.6802V44.768H88.3682ZM97.1174 46.96V49.232H100.781V51.344H97.1174V53.808H101.261V56H94.3814V44.768H101.261V46.96H97.1174ZM107.214 50.368C107.214 49.2587 107.454 48.272 107.934 47.408C108.414 46.5333 109.08 45.856 109.934 45.376C110.798 44.8853 111.774 44.64 112.862 44.64C114.195 44.64 115.336 44.992 116.286 45.696C117.235 46.4 117.87 47.36 118.19 48.576H115.182C114.958 48.1067 114.638 47.7493 114.222 47.504C113.816 47.2587 113.352 47.136 112.83 47.136C111.987 47.136 111.304 47.4293 110.782 48.016C110.259 48.6027 109.998 49.3867 109.998 50.368C109.998 51.3493 110.259 52.1333 110.782 52.72C111.304 53.3067 111.987 53.6 112.83 53.6C113.352 53.6 113.816 53.4773 114.222 53.232C114.638 52.9867 114.958 52.6293 115.182 52.16H118.19C117.87 53.376 117.235 54.336 116.286 55.04C115.336 55.7333 114.195 56.08 112.862 56.08C111.774 56.08 110.798 55.84 109.934 55.36C109.08 54.8693 108.414 54.192 107.934 53.328C107.454 52.464 107.214 51.4773 107.214 50.368ZM134.233 44.768V56H131.497V51.376H127.241V56H124.505V44.768H127.241V49.168H131.497V44.768H134.233Z" fill="white"/>
<path d="M73.716 60.745V61.582H72.051V67H71.025V61.582H69.351V60.745H73.716ZM79.4441 67L78.0041 64.498H77.2211V67H76.1951V60.745H78.3551C78.8351 60.745 79.2401 60.829 79.5701 60.997C79.9061 61.165 80.1551 61.39 80.3171 61.672C80.4851 61.954 80.5691 62.269 80.5691 62.617C80.5691 63.025 80.4491 63.397 80.2091 63.733C79.9751 64.063 79.6121 64.288 79.1201 64.408L80.6681 67H79.4441ZM77.2211 63.679H78.3551C78.7391 63.679 79.0271 63.583 79.2191 63.391C79.4171 63.199 79.5161 62.941 79.5161 62.617C79.5161 62.293 79.4201 62.041 79.2281 61.861C79.0361 61.675 78.7451 61.582 78.3551 61.582H77.2211V63.679ZM87.0926 65.722H84.4736L84.0236 67H82.9526L85.1936 60.736H86.3816L88.6226 67H87.5426L87.0926 65.722ZM86.8046 64.885L85.7876 61.978L84.7616 64.885H86.8046ZM96.176 67H95.15L92.063 62.329V67H91.037V60.736H92.063L95.15 65.398V60.736H96.176V67ZM101.024 67.063C100.604 67.063 100.226 66.991 99.8903 66.847C99.5543 66.697 99.2903 66.487 99.0983 66.217C98.9063 65.947 98.8103 65.632 98.8103 65.272H99.9083C99.9323 65.542 100.037 65.764 100.223 65.938C100.415 66.112 100.682 66.199 101.024 66.199C101.378 66.199 101.654 66.115 101.852 65.947C102.05 65.773 102.149 65.551 102.149 65.281C102.149 65.071 102.086 64.9 101.96 64.768C101.84 64.636 101.687 64.534 101.501 64.462C101.321 64.39 101.069 64.312 100.745 64.228C100.337 64.12 100.004 64.012 99.7463 63.904C99.4943 63.79 99.2783 63.616 99.0983 63.382C98.9183 63.148 98.8283 62.836 98.8283 62.446C98.8283 62.086 98.9183 61.771 99.0983 61.501C99.2783 61.231 99.5303 61.024 99.8543 60.88C100.178 60.736 100.553 60.664 100.979 60.664C101.585 60.664 102.08 60.817 102.464 61.123C102.854 61.423 103.07 61.837 103.112 62.365H101.978C101.96 62.137 101.852 61.942 101.654 61.78C101.456 61.618 101.195 61.537 100.871 61.537C100.577 61.537 100.337 61.612 100.151 61.762C99.9653 61.912 99.8723 62.128 99.8723 62.41C99.8723 62.602 99.9293 62.761 100.043 62.887C100.163 63.007 100.313 63.103 100.493 63.175C100.673 63.247 100.919 63.325 101.231 63.409C101.645 63.523 101.981 63.637 102.239 63.751C102.503 63.865 102.725 64.042 102.905 64.282C103.091 64.516 103.184 64.831 103.184 65.227C103.184 65.545 103.097 65.845 102.923 66.127C102.755 66.409 102.506 66.637 102.176 66.811C101.852 66.979 101.468 67.063 101.024 67.063ZM110.209 62.608C110.209 62.926 110.134 63.226 109.984 63.508C109.834 63.79 109.594 64.021 109.264 64.201C108.934 64.375 108.511 64.462 107.995 64.462H106.861V67H105.835V60.745H107.995C108.475 60.745 108.88 60.829 109.21 60.997C109.546 61.159 109.795 61.381 109.957 61.663C110.125 61.945 110.209 62.26 110.209 62.608ZM107.995 63.625C108.385 63.625 108.676 63.538 108.868 63.364C109.06 63.184 109.156 62.932 109.156 62.608C109.156 61.924 108.769 61.582 107.995 61.582H106.861V63.625H107.995ZM115.48 67.063C114.898 67.063 114.361 66.928 113.869 66.658C113.383 66.382 112.996 66.001 112.708 65.515C112.426 65.023 112.285 64.471 112.285 63.859C112.285 63.247 112.426 62.698 112.708 62.212C112.996 61.726 113.383 61.348 113.869 61.078C114.361 60.802 114.898 60.664 115.48 60.664C116.068 60.664 116.605 60.802 117.091 61.078C117.583 61.348 117.97 61.726 118.252 62.212C118.534 62.698 118.675 63.247 118.675 63.859C118.675 64.471 118.534 65.023 118.252 65.515C117.97 66.001 117.583 66.382 117.091 66.658C116.605 66.928 116.068 67.063 115.48 67.063ZM115.48 66.172C115.894 66.172 116.263 66.079 116.587 65.893C116.911 65.701 117.163 65.431 117.343 65.083C117.529 64.729 117.622 64.321 117.622 63.859C117.622 63.397 117.529 62.992 117.343 62.644C117.163 62.296 116.911 62.029 116.587 61.843C116.263 61.657 115.894 61.564 115.48 61.564C115.066 61.564 114.697 61.657 114.373 61.843C114.049 62.029 113.794 62.296 113.608 62.644C113.428 62.992 113.338 63.397 113.338 63.859C113.338 64.321 113.428 64.729 113.608 65.083C113.794 65.431 114.049 65.701 114.373 65.893C114.697 66.079 115.066 66.172 115.48 66.172ZM124.374 67L122.934 64.498H122.151V67H121.125V60.745H123.285C123.765 60.745 124.17 60.829 124.5 60.997C124.836 61.165 125.085 61.39 125.247 61.672C125.415 61.954 125.499 62.269 125.499 62.617C125.499 63.025 125.379 63.397 125.139 63.733C124.905 64.063 124.542 64.288 124.05 64.408L125.598 67H124.374ZM122.151 63.679H123.285C123.669 63.679 123.957 63.583 124.149 63.391C124.347 63.199 124.446 62.941 124.446 62.617C124.446 62.293 124.35 62.041 124.158 61.861C123.966 61.675 123.675 61.582 123.285 61.582H122.151V63.679ZM132.293 60.745V61.582H130.628V67H129.602V61.582H127.928V60.745H132.293Z" fill="#9FC800"/>
</svg>
